<?xml version="1.0" encoding="UTF-8" standalone="no"?>
<svg width="75px" height="62px" viewBox="0 0 75 62" version="1.1" xmlns="http://www.w3.org/2000/svg" xmlns:xlink="http://www.w3.org/1999/xlink" xmlns:sketch="http://www.bohemiancoding.com/sketch/ns">
    <!-- Generator: Sketch 3.5.2 (25235) - http://www.bohemiancoding.com/sketch -->
    <title>Group 2</title>
    <desc>Created with Sketch.</desc>
    <defs></defs>
    <g id="Experiments" stroke="none" stroke-width="1" fill="none" fill-rule="evenodd" sketch:type="MSPage">
        <g id="Desktop-HD-Copy-2" sketch:type="MSArtboardGroup" transform="translate(-178.000000, -877.000000)" stroke="#000000" stroke-width="2">
            <g id="Group-2" sketch:type="MSLayerGroup" transform="translate(179.000000, 878.000000)">
                <path d="M29.5930734,48.0799617 L9.76795859,36.6064133 C7.41777223,35.2467359 7.40908927,31.8344779 9.75155746,30.3480262 L28.3330802,18.5609295 C32.748845,15.7593166 38.292429,15.6131875 42.7197711,18.1806069 L63.0697222,29.9831875 C65.3996484,31.3341553 65.4285915,34.7115746 63.1227847,36.2144779 L45.7481927,47.542865 C40.8201336,50.7557682 34.5761245,50.962865 29.5930734,48.0799617 L29.5930734,48.0799617 Z" id="Stroke-4" sketch:type="MSShapeGroup" transform="translate(36.417395, 33.229199) rotate(-180.000000) translate(-36.417395, -33.229199) "></path>
                <path d="M29.5930734,57.0799617 L9.76795859,45.6064133 C7.41777223,44.2467359 7.40908927,40.8344779 9.75155746,39.3480262 L28.3330802,27.5609295 C32.748845,24.7593166 38.292429,24.6131875 42.7197711,27.1806069 L63.0697222,38.9831875 C65.3996484,40.3341553 65.4285915,43.7115746 63.1227847,45.2144779 L45.7481927,56.542865 C40.8201336,59.7557682 34.5761245,59.962865 29.5930734,57.0799617 L29.5930734,57.0799617 Z" id="Stroke-4" sketch:type="MSShapeGroup" transform="translate(36.417395, 42.229199) rotate(-180.000000) translate(-36.417395, -42.229199) "></path>
                <circle id="Oval-75" sketch:type="MSShapeGroup" cx="37" cy="37.3525425" r="5"></circle>
                <path d="M52.3793397,15.6031797 C54.5061283,14.1459689 56.6329169,12.6887581 58.7597055,11.2315473" id="Line" stroke-linecap="round" sketch:type="MSShapeGroup" transform="translate(55.569523, 13.417363) rotate(-19.000000) translate(-55.569523, -13.417363) "></path>
                <path d="M10.5108745,15.6886472 L16.9943016,11.2464004" id="Line" stroke-linecap="round" sketch:type="MSShapeGroup" transform="translate(13.752588, 13.467524) scale(1, -1) rotate(-19.000000) translate(-13.752588, -13.467524) "></path>
                <path d="M30.9229359,7.95760161 C30.9229359,7.95760161 36.6055795,4.70509192 39.9389128,2.82161194" id="Line" stroke-linecap="round" sketch:type="MSShapeGroup" transform="translate(35.430924, 5.389607) rotate(-60.000000) translate(-35.430924, -5.389607) "></path>
                <path d="M0.319989398,29.873321 L3.63997884,27.9366605" id="Line" stroke-linecap="round" sketch:type="MSShapeGroup" transform="translate(1.979984, 28.904991) scale(-1, 1) translate(-1.979984, -28.904991) "></path>
                <path d="M69,29.9366605 L72.3199894,28" id="Line" stroke-linecap="round" sketch:type="MSShapeGroup" transform="translate(70.659995, 28.968330) scale(-1, -1) translate(-70.659995, -28.968330) "></path>
            </g>
        </g>
    </g>
</svg>