<?xml version="1.0" encoding="UTF-8" standalone="no"?>
<svg width="103px" height="33px" viewBox="0 0 103 33" version="1.1" xmlns="http://www.w3.org/2000/svg" xmlns:xlink="http://www.w3.org/1999/xlink" xmlns:sketch="http://www.bohemiancoding.com/sketch/ns">
    <!-- Generator: Sketch 3.5.2 (25235) - http://www.bohemiancoding.com/sketch -->
    <title>Group 4</title>
    <desc>Created with Sketch.</desc>
    <defs>
        <linearGradient x1="50.0480724%" y1="119.063832%" x2="50.0480724%" y2="8.67013123%" id="linearGradient-1">
            <stop stop-color="#FFFFFF" offset="0%"></stop>
            <stop stop-color="#FFF7BC" offset="4.088625%"></stop>
            <stop stop-color="#FFF083" offset="8.068123%"></stop>
            <stop stop-color="#FEEA54" offset="11.87%"></stop>
            <stop stop-color="#FEE62F" offset="15.47%"></stop>
            <stop stop-color="#FEE315" offset="18.82%"></stop>
            <stop stop-color="#FEE106" offset="21.82%"></stop>
            <stop stop-color="#FEE000" offset="24.18%"></stop>
            <stop stop-color="#FCD706" offset="27.66%"></stop>
            <stop stop-color="#F6C117" offset="33.82%"></stop>
            <stop stop-color="#EE9E21" offset="41.95%"></stop>
            <stop stop-color="#E46E25" offset="51.73%"></stop>
            <stop stop-color="#DB1F26" offset="62.09%"></stop>
            <stop stop-color="#DF1F26" offset="100%"></stop>
        </linearGradient>
        <linearGradient x1="49.9498788%" y1="117.163259%" x2="49.9498788%" y2="-10.2579872%" id="linearGradient-2">
            <stop stop-color="#FFFFFF" offset="0%"></stop>
            <stop stop-color="#FFF7BC" offset="4.088625%"></stop>
            <stop stop-color="#FFF083" offset="8.068123%"></stop>
            <stop stop-color="#FEEA54" offset="11.87%"></stop>
            <stop stop-color="#FEE62F" offset="15.47%"></stop>
            <stop stop-color="#FEE315" offset="18.82%"></stop>
            <stop stop-color="#FEE106" offset="21.82%"></stop>
            <stop stop-color="#FEE000" offset="24.18%"></stop>
            <stop stop-color="#FCD706" offset="27.66%"></stop>
            <stop stop-color="#F6C117" offset="33.82%"></stop>
            <stop stop-color="#EE9E21" offset="41.95%"></stop>
            <stop stop-color="#E46E25" offset="51.73%"></stop>
            <stop stop-color="#DB1F26" offset="62.09%"></stop>
            <stop stop-color="#DF1F26" offset="100%"></stop>
        </linearGradient>
        <linearGradient x1="50.0290877%" y1="124.993791%" x2="50.0290877%" y2="-35.9056245%" id="linearGradient-3">
            <stop stop-color="#FFFFFF" offset="0%"></stop>
            <stop stop-color="#FFF7BC" offset="4.088625%"></stop>
            <stop stop-color="#FFF083" offset="8.068123%"></stop>
            <stop stop-color="#FEEA54" offset="11.87%"></stop>
            <stop stop-color="#FEE62F" offset="15.47%"></stop>
            <stop stop-color="#FEE315" offset="18.82%"></stop>
            <stop stop-color="#FEE106" offset="21.82%"></stop>
            <stop stop-color="#FEE000" offset="24.18%"></stop>
            <stop stop-color="#FCD706" offset="27.66%"></stop>
            <stop stop-color="#F6C117" offset="33.82%"></stop>
            <stop stop-color="#EE9E21" offset="41.95%"></stop>
            <stop stop-color="#E46E25" offset="51.73%"></stop>
            <stop stop-color="#DB1F26" offset="62.09%"></stop>
            <stop stop-color="#DF1F26" offset="100%"></stop>
        </linearGradient>
        <linearGradient x1="49.9484357%" y1="98.9412371%" x2="49.9484357%" y2="-27.4027062%" id="linearGradient-4">
            <stop stop-color="#FFFCF0" offset="0%"></stop>
            <stop stop-color="#FFE54D" offset="61.14%"></stop>
            <stop stop-color="#FEE200" offset="75.27%"></stop>
            <stop stop-color="#FEE000" offset="80.77%"></stop>
            <stop stop-color="#FCD906" offset="84.78%"></stop>
            <stop stop-color="#FACE11" offset="88.32%"></stop>
            <stop stop-color="#F6BD19" offset="91.59%"></stop>
            <stop stop-color="#F2A81F" offset="94.67%"></stop>
            <stop stop-color="#EE9022" offset="97.57%"></stop>
            <stop stop-color="#EA7724" offset="100%"></stop>
        </linearGradient>
        <linearGradient x1="49.9828352%" y1="94.9367304%" x2="49.9828352%" y2="-58.0671621%" id="linearGradient-5">
            <stop stop-color="#FFFFFF" offset="0%"></stop>
            <stop stop-color="#FFF7BC" offset="4.088625%"></stop>
            <stop stop-color="#FFF183" offset="8.068123%"></stop>
            <stop stop-color="#FEEC54" offset="11.87%"></stop>
            <stop stop-color="#FEE72F" offset="15.47%"></stop>
            <stop stop-color="#FEE415" offset="18.82%"></stop>
            <stop stop-color="#FEE306" offset="21.82%"></stop>
            <stop stop-color="#FEE200" offset="24.18%"></stop>
            <stop stop-color="#FCD906" offset="27.62%"></stop>
            <stop stop-color="#F6C317" offset="33.73%"></stop>
            <stop stop-color="#EEA021" offset="41.78%"></stop>
            <stop stop-color="#E57125" offset="51.46%"></stop>
            <stop stop-color="#DB1F26" offset="62.09%"></stop>
            <stop stop-color="#DF1F26" offset="100%"></stop>
        </linearGradient>
        <linearGradient x1="50.0054286%" y1="95.2222775%" x2="50.0054286%" y2="13.0195135%" id="linearGradient-6">
            <stop stop-color="#FFFCF0" offset="0%"></stop>
            <stop stop-color="#FFE54D" offset="56.23%"></stop>
            <stop stop-color="#FEE200" offset="69.23%"></stop>
            <stop stop-color="#F8BF17" offset="82.09%"></stop>
            <stop stop-color="#F3A21E" offset="93.87%"></stop>
            <stop stop-color="#F29820" offset="100%"></stop>
        </linearGradient>
    </defs>
    <g id="Experiments" stroke="none" stroke-width="1" fill="none" fill-rule="evenodd" sketch:type="MSPage">
        <g id="Desktop-HD" sketch:type="MSArtboardGroup" transform="translate(-187.000000, -74.000000)">
            <g id="Group-4" sketch:type="MSLayerGroup" transform="translate(187.000000, 73.000000)">
                <g id="Group-Copy" transform="translate(0.815789, 0.975660)" sketch:type="MSShapeGroup">
                    <path d="M12.1704878,0.472410397 C12.1704878,0.472410397 15.4973107,5.84268828 14.9456265,11.129317 C14.3605069,16.4494053 10.7829185,18.858502 9.01084193,22.9238525 C7.25548311,27.0059329 8.275263,31.2385818 9.74642086,32.3427511 C7.80716731,30.9541746 2.70826789,28.3610497 3.07605736,21.5018163 C3.25995209,19.3771269 4.56393293,15.5627239 7.70686109,11.8654298 C10.866507,8.16813571 12.9060667,6.67918016 12.1704878,0.472410397 L12.1704878,0.472410397 Z" id="Shape" fill="url(#linearGradient-1)"></path>
                    <path d="M4.9985932,29.6659771 C4.9985932,29.6659771 0.250765545,26.3367394 0.0668708121,21.2675986 C-0.117023921,19.0425302 1.1033684,15.6463731 4.01224873,13.0532483 C7.35578933,10.0753372 8.275263,9.47306305 8.96068882,8.72022035 C7.03815297,11.0122081 2.84200951,15.4623449 2.15658369,19.2934777 C1.48787557,23.1246106 2.84200951,27.0728522 4.9985932,29.6659771 L4.9985932,29.6659771 Z" id="Shape" fill="url(#linearGradient-2)"></path>
                    <path d="M10.866507,32.6940777 C10.866507,32.6940777 7.90747353,28.3610497 10.0640572,23.6766952 C10.7996362,22.254659 13.3908801,19.159639 14.6279901,16.3322965 C15.8651002,13.4882241 16.1158657,11.7650508 16.0489949,9.79092996 C17.954813,12.4509741 21.0475881,20.3641873 17.5368705,26.4705781 C18.6402389,25.7846547 20.2451384,24.2455097 20.8636934,22.5725259 C20.5627747,25.968683 19.024746,32.3260213 10.866507,32.6940777 L10.866507,32.6940777 Z" id="Shape" fill="url(#linearGradient-3)"></path>
                    <path d="M11.1841433,32.0081543 C11.1841433,32.0081543 9.29504288,28.6287271 11.4349089,25.2660298 C13.1568323,22.5557961 14.9623442,21.9869816 15.9988418,19.0258003 C16.1827365,22.1208203 16.0657126,26.1861708 13.4075978,29.6492472 C14.5109662,29.465219 15.196392,29.0971626 16.1158657,28.4781586 C15.4973107,29.7998158 14.3270715,31.4560697 11.1841433,32.0081543 L11.1841433,32.0081543 Z" id="Shape" fill="url(#linearGradient-4)"></path>
                    <path d="M8.07465056,30.4355496 C8.07465056,30.4355496 2.72498559,24.3626185 6.48646877,18.1223891 C9.07771274,13.6053329 12.4212533,13.3376555 13.1568323,6.79628902 C13.1568323,11.5141032 13.6583634,13.8228208 9.61267924,19.0759898 C6.95456446,22.5223364 6.35272715,27.1565014 8.07465056,30.4355496 L8.07465056,30.4355496 Z" id="Shape" fill="url(#linearGradient-5)"></path>
                    <path d="M14.7115787,1.07468455 C14.7115787,1.07468455 16.2161719,5.44117218 11.7191098,11.7315911 C8.44244003,16.282107 1.98940666,23.0576912 8.8436649,31.3389608 C6.0685262,28.4614288 3.37697601,23.4592073 6.36944485,17.5368448 C9.11114815,12.1331072 15.7313585,8.653301 14.7115787,1.07468455 L14.7115787,1.07468455 Z" id="Shape" fill="url(#linearGradient-6)"></path>
                </g>
                <g id="Group-3" transform="translate(35.000000, 9.000000)" fill="#E01E26" sketch:type="MSShapeGroup">
                    <path d="M0.579248885,0.0527717791 L12.5306508,0.0527717791 L12.5306508,2.67092878 L3.60952319,2.67092878 L3.60952319,7.20421915 L11.439752,7.20421915 L11.439752,9.67692298 L3.60952319,9.67692298 L3.60952319,17.3616986 L0.579248885,17.3616986 L0.579248885,0.0527717791 Z M14.8821436,0.0527717791 L17.9124179,0.0527717791 L17.9124179,6.93755501 L25.7911311,6.93755501 L25.7911311,0.0527717791 L28.8214054,0.0527717791 L28.8214054,17.3616986 L25.7911311,17.3616986 L25.7911311,9.55571201 L17.9124179,9.55571201 L17.9124179,17.3616986 L14.8821436,17.3616986 L14.8821436,0.0527717791 Z M32.4577346,0.0527717791 L35.4880089,0.0527717791 L35.4880089,17.3616986 L32.4577346,17.3616986 L32.4577346,0.0527717791 Z M39.1970647,0.0527717791 L47.463653,0.0527717791 C49.3707152,0.0527717791 50.8009903,0.464884964 51.7545214,1.2891237 C52.7080525,2.11336243 53.1848109,3.26081483 53.1848109,4.73151531 C53.1848109,5.55575404 53.0636011,6.23856903 52.821178,6.77998074 C52.5787548,7.32139246 52.295932,7.7577476 51.9727012,8.08905925 C51.6494703,8.42037089 51.3302846,8.65875009 51.0151345,8.80420398 C50.6999844,8.94965788 50.4696858,9.04662568 50.3242319,9.09511032 L50.3242319,9.14359471 C50.5828166,9.17591779 50.8615991,9.2567243 51.1605876,9.38601665 C51.4595762,9.515309 51.7383587,9.72136559 51.9969434,10.0041926 C52.2555281,10.2870196 52.4696653,10.6546892 52.6393615,11.1072125 C52.8090577,11.5597357 52.8939045,12.1253812 52.8939045,12.8041661 C52.8939045,13.8223433 52.9706707,14.7475778 53.1242054,15.5798973 C53.2777401,16.4122168 53.5161193,17.0061447 53.8393501,17.3616986 L50.5908961,17.3616986 C50.3646345,16.9899831 50.2313037,16.5778699 50.1908999,16.1253467 C50.150496,15.6728235 50.1302944,15.2364683 50.1302944,14.8162682 C50.1302944,14.0243526 50.0818105,13.3415376 49.9848412,12.7678028 C49.887872,12.194068 49.7100976,11.7173096 49.4515129,11.3375133 C49.1929282,10.957717 48.8414199,10.6789346 48.3969775,10.5011576 C47.952535,10.3233806 47.3828491,10.2344935 46.6879028,10.2344935 L42.227339,10.2344935 L42.227339,17.3616986 L39.1970647,17.3616986 L39.1970647,0.0527717791 Z M42.227339,7.93148498 L47.1969888,7.93148498 C48.1666815,7.93148498 48.9020207,7.70118644 49.4030285,7.24058244 C49.9040364,6.77997844 50.1545366,6.08908281 50.1545366,5.16787481 C50.1545366,4.61838232 50.0737301,4.16990621 49.9121146,3.82243302 C49.7504992,3.47495983 49.5282813,3.20425803 49.2454543,3.0103195 C48.9626273,2.81638098 48.6394012,2.68709057 48.2757665,2.62244439 C47.9121318,2.55779822 47.5363815,2.52547561 47.1485045,2.52547561 L42.227339,2.52547561 L42.227339,7.93148498 Z" id="FHIR"></path>
                    <path d="M60.4333442,2.2227017 C59.7178592,2.95444773 59.360122,3.82236681 59.360122,4.82648498 C59.360122,5.86719045 59.7239569,6.75137032 60.4516377,7.47905109 C61.1752532,8.20673187 62.0492701,8.5705668 63.0737146,8.5705668 C64.0940938,8.5705668 64.966078,8.20469928 65.6896936,7.47295324 C66.4133091,6.73714195 66.7751114,5.85499469 66.7751114,4.82648498 C66.7751114,3.82643207 66.4153417,2.95851299 65.6957914,2.2227017 C64.9681106,1.47469464 64.0940938,1.10069672 63.0737146,1.10069672 C62.0411396,1.10069672 61.1610249,1.47469464 60.4333442,2.2227017 L60.4333442,2.2227017 Z M66.2202068,8.05224929 C65.3461768,8.89782248 64.2973565,9.32060274 63.0737146,9.32060274 C61.80942,9.32060274 60.744339,8.8876595 59.8784395,8.02176002 C59.0125401,7.15586055 58.5795968,6.09077952 58.5795968,4.82648498 C58.5795968,3.51340738 59.0470942,2.42190258 59.982103,1.55193785 C60.8601983,0.738886702 61.8907251,0.332367225 63.0737146,0.332367225 C64.3136176,0.332367225 65.3726008,0.77140826 66.2506961,1.6495035 C67.1287913,2.52759874 67.5678323,3.58658198 67.5678323,4.82648498 C67.5678323,6.10297529 67.1186283,7.1782193 66.2202068,8.05224929 L66.2202068,8.05224929 Z M63.4822707,3.32641311 C63.3033995,3.25730376 63.0513574,3.22274961 62.7261369,3.22274961 L62.4090486,3.22274961 L62.4090486,4.6679408 L62.9151704,4.6679408 C63.2200646,4.6679408 63.4578785,4.60696288 63.6286192,4.48500521 C63.7993599,4.36304753 63.884729,4.16588559 63.884729,3.89351345 C63.884729,3.62114132 63.7505776,3.43210976 63.4822707,3.32641311 L63.4822707,3.32641311 Z M61.104108,7.32660477 L61.104108,2.34465876 C61.4130674,2.34465876 61.8754834,2.34567506 62.4913696,2.34770768 C63.1072558,2.34974031 63.4497485,2.35278921 63.5188578,2.35685446 C63.9131877,2.38531125 64.2404358,2.47068034 64.5006122,2.6129643 C64.9437251,2.85687964 65.1652782,3.25323613 65.1652782,3.80204566 C65.1652782,4.220767 65.0484038,4.52362401 64.8146516,4.71062577 C64.5808994,4.89762754 64.2932869,5.00942039 63.9518054,5.0460077 C64.2648301,5.11105179 64.5006114,5.20658386 64.6591564,5.33260679 C64.9518548,5.56839163 65.0982018,5.94035695 65.0982018,6.44851392 L65.0982018,6.89365719 C65.0982018,6.94244026 65.1012507,6.9912226 65.1073486,7.04000567 C65.1134465,7.08878874 65.1246258,7.13757108 65.1408868,7.18635414 L65.1835718,7.32660477 L63.9396097,7.32660477 C63.8989572,7.16805979 63.8725334,6.93837629 63.8603376,6.63754736 C63.8481419,6.33671844 63.8217181,6.1334587 63.7810655,6.02776205 C63.7160214,5.85295605 63.5940656,5.73100021 63.4151943,5.66189086 C63.3176282,5.6212383 63.1692486,5.59481454 62.9700511,5.58261877 L62.683452,5.56432521 L62.4090486,5.56432521 L62.4090486,7.32660477 L61.104108,7.32660477 Z" id="®"></path>
                </g>
            </g>
        </g>
    </g>
</svg>