<?xml version="1.0" encoding="utf-8"?>
<!-- Generator: Adobe Illustrator 18.0.0, SVG Export Plug-In . SVG Version: 6.00 Build 0)  -->
<!DOCTYPE svg PUBLIC "-//W3C//DTD SVG 1.1//EN" "http://www.w3.org/Graphics/SVG/1.1/DTD/svg11.dtd">
<svg version="1.1" id="Layer_1" xmlns="http://www.w3.org/2000/svg" xmlns:xlink="http://www.w3.org/1999/xlink" x="0px" y="0px"
	 viewBox="0 0 171 118.9" enable-background="new 0 0 171 118.9" xml:space="preserve">
<g>
	<path fill="#BFBFBF" d="M141.2,53.6c0-6.5-1.6-13.7-2.9-17.6c-5.5,3.7-7.1,4.4-11.6,6c-1.6,0.6-3.7,1.3-6.5,2.4
		c-1.5,0.5-2.9,1.1-4.4,1.6c-2.3,0.8-4.5,1.8-6.6,2.6C98.5,53,91.9,60.3,89.4,70.3c-1.6,6.5-1.3,25.2-1.3,33.2c0,0.3,0,0.6,0,1
		c0.5-0.2,1-0.3,1.5-0.6c0.8-0.3,1.5-0.6,2.4-1c12.5-4.2,22.2-7.8,33.3-17.1C136,77.3,141,66.6,141.2,53.6z"/>
	<path fill="#BFBFBF" d="M23,67.7c-0.3-1.3-0.6-1.3-1.6-1.5c-3.4-0.2-10.5-0.5-14.7-1l0.2,0.6c0.5,2.3,0.5,2.3,1,3.9
		c0.2,0.6,0.5,1.8,1,3.6C12.5,87.3,21.7,97,37.2,103c4.7,1.8,18.9,3.9,28.1,5c-5.3-2.6-11-5.3-16.2-8.4C35.6,91.8,26.8,81,23,67.7z"
		/>
	<path fill="#BFBFBF" d="M147.3,66.6c-1,0-1.3,0.2-1.6,1.5c-3.9,13.3-12.6,23.9-26,31.9c-4.7,2.7-10.2,5-15.4,7.1
		c-0.8,0.3-1.6,0.6-2.3,1c9.9-1,24.9-2.7,29.8-4.7c15.5-6,24.9-15.7,28.5-29.6c0.5-1.8,0.8-2.9,1-3.6c0.3-1.5,0.3-1.5,0.8-3.7
		l0.2-0.6C157.8,66.1,150.7,66.4,147.3,66.6z"/>
	<path fill="#BFBFBF" d="M60.3,49.1c-2.3-1-4.5-1.8-6.8-2.6c-1.5-0.5-2.9-1.1-4.2-1.6c-2.7-1.1-4.7-1.8-6.5-2.4
		c-4.5-1.6-6.3-2.3-11.6-6c-1.1,3.7-2.9,11.2-2.9,17.6c0.2,12.9,5.2,23.4,15.7,32.2c11.2,9.4,20.9,13.1,33.3,17.1
		c1,0.3,1.6,0.6,2.4,1c0.5,0.2,1,0.3,1.5,0.6c0-0.3,0-0.6,0-1c0.2-8.1,0.3-26.8-1.3-33.2C77.6,60.8,71,53.5,60.3,49.1z"/>
	<path fill="#BFBFBF" d="M104.3,41.8c-1.9-7.9-7.3-24.9-19.1-35.3C80.4,12.2,69.7,27.1,67,41.5c0.6,0.3,1.1,0.8,1.8,1.1
		c3.4,2.1,6.6,4.2,9.9,7.8c2.9,3.2,5.3,7.3,7.1,11.6c1.3-3.4,3.4-7.8,6.8-11.3C96.2,47,99.8,44.6,104.3,41.8z"/>
</g>
</svg>
