<?xml version="1.0" encoding="UTF-8" standalone="no"?>
<svg width="60px" height="58px" viewBox="0 0 60 58" version="1.1" xmlns="http://www.w3.org/2000/svg" xmlns:xlink="http://www.w3.org/1999/xlink" xmlns:sketch="http://www.bohemiancoding.com/sketch/ns">
    <!-- Generator: Sketch 3.5.2 (25235) - http://www.bohemiancoding.com/sketch -->
    <title>Stroke 4 Copy</title>
    <desc>Created with Sketch.</desc>
    <defs></defs>
    <g id="Experiments" stroke="none" stroke-width="1" fill="none" fill-rule="evenodd" sketch:type="MSPage">
        <g id="Desktop-HD" sketch:type="MSArtboardGroup" transform="translate(-289.000000, -785.000000)" stroke="#000000" stroke-width="2">
            <path d="M312.277627,827.054634 L293.999397,816.476327 C291.832588,815.22274 291.824583,812.076729 293.984276,810.70626 L311.115946,799.83887 C315.187164,797.255857 320.298201,797.12113 324.380093,799.488223 L343.142207,810.369889 C345.290337,811.615445 345.317022,814.729336 343.19113,816.114973 L327.172217,826.559445 C322.628678,829.521656 316.871867,829.712594 312.277627,827.054634 L312.277627,827.054634 Z M292.44545,827.203824 C289.958422,825.776253 289.975323,822.15022 290.006455,819.670707 L290.006455,802.538061 C290.006455,802.538061 301.313713,794.357182 311.912934,788.266804 C317.176075,784.966437 324.247558,788.372088 324.885326,788.733442 C336.740513,795.452844 345.317022,800.946318 347.266795,802.066962 L347.230326,819.751007 C347.378871,822.181448 347.167171,825.649556 344.70505,827.264496 L327.930956,838.546774 C322.668705,841.999713 316.921679,842.269168 311.647864,839.242715 L292.44545,827.203824 Z" id="Stroke-4-Copy" sketch:type="MSShapeGroup"></path>
        </g>
    </g>
</svg>